<svg width="50" height="50" viewBox="0 0 50 50" fill="none" xmlns="http://www.w3.org/2000/svg">
<rect width="50" height="50" rx="20" fill="#E8F1F5"/>
<path fill-rule="evenodd" clip-rule="evenodd" d="M25 16C20.0294 16 16 20.0294 16 25C16 29.9706 20.0294 34 25 34C29.9706 34 34 29.9706 34 25C34 20.0294 29.9706 16 25 16ZM13.75 25C13.75 18.7868 18.7868 13.75 25 13.75C31.2132 13.75 36.25 18.7868 36.25 25C36.25 31.2132 31.2132 36.25 25 36.25C18.7868 36.25 13.75 31.2132 13.75 25ZM24.8069 19.102C25.4283 19.102 25.932 19.6057 25.932 20.227V25.8151L29.8997 27.3235C30.4806 27.5442 30.7724 28.194 30.5515 28.7747C30.3308 29.3555 29.681 29.6474 29.1003 29.4265L24.4072 27.6426C23.9706 27.4766 23.6819 27.0581 23.6819 26.591V20.227C23.6819 19.6057 24.1856 19.102 24.8069 19.102Z" fill="#040A2C"/>
</svg>
