<svg width="50" height="50" viewBox="0 0 50 50" fill="none" xmlns="http://www.w3.org/2000/svg">
<rect width="50" height="50" rx="20" fill="#E8F1F5"/>
<path d="M35.0765 17.438L30.7966 21.7179L30.8079 21.7554L34.0581 33.7188C34.1137 33.9802 34.1069 34.251 34.0383 34.5093C33.9696 34.7676 33.8411 35.0061 33.663 35.2054L32.5902 36.2781C32.5208 36.3592 32.4322 36.4214 32.3324 36.4591C32.2326 36.4967 32.1249 36.5087 32.0193 36.4938C31.9137 36.4788 31.8136 36.4375 31.7281 36.3737C31.6427 36.3098 31.5747 36.2254 31.5305 36.1284L27.1345 28.1714L25.7397 26.7748L22.0514 30.463C21.6287 30.8403 21.1562 31.1578 20.6472 31.4066L21.471 34.1157C21.5335 34.374 21.5323 34.6436 21.4674 34.9013C21.4025 35.1589 21.2759 35.397 21.0985 35.5948L20.7708 35.9243C20.6035 36.0903 20.3774 36.1835 20.1417 36.1835C19.9061 36.1835 19.68 36.0903 19.5127 35.9243L17.5655 33.9791L17.5318 33.9416L16.0565 32.4701L16.0191 32.4326L14.0757 30.4874C13.9097 30.3201 13.8165 30.094 13.8165 29.8583C13.8165 29.6226 13.9097 29.3965 14.0757 29.2292L14.4052 28.8997C14.6034 28.723 14.8416 28.5971 15.0992 28.5328C15.3569 28.4686 15.6263 28.4679 15.8843 28.5309L18.5934 29.3509C18.8425 28.8421 19.16 28.3697 19.537 27.9468L23.2253 24.2585L21.8286 22.8656L13.8716 18.4696C13.7746 18.4254 13.6902 18.3575 13.6263 18.272C13.5625 18.1866 13.5212 18.0865 13.5062 17.9808C13.4913 17.8752 13.5032 17.7676 13.5409 17.6678C13.5786 17.568 13.6408 17.4793 13.7219 17.4099L14.7946 16.3372C14.994 16.1592 15.2325 16.0308 15.4907 15.9621C15.749 15.8935 16.0198 15.8866 16.2812 15.9421L28.2448 19.1923L28.2822 19.2035L32.5621 14.9236C33.2549 14.2272 35.597 13.014 36.2935 13.7067C36.9862 14.4032 35.7711 16.7434 35.0765 17.438Z" fill="#040A2C"/>
</svg>
