<svg width="50" height="50" viewBox="0 0 50 50" fill="none" xmlns="http://www.w3.org/2000/svg">
<rect width="50" height="50" rx="20" fill="#E8F1F5"/>
<path fill-rule="evenodd" clip-rule="evenodd" d="M24.3333 12.9535C23.0446 12.9535 21.9999 13.9739 21.9999 15.2326C21.9999 16.4912 23.0446 17.5116 24.3333 17.5116C25.6219 17.5116 26.6666 16.4912 26.6666 15.2326C26.6666 13.9739 25.6219 12.9535 24.3333 12.9535ZM20 15.2326C20 12.895 21.9401 11 24.3333 11C26.7266 11 28.6665 12.895 28.6665 15.2326C28.6665 17.5701 26.7266 19.4651 24.3333 19.4651C21.9401 19.4651 20 17.5701 20 15.2326ZM22.2389 21.441C22.5053 21.4269 22.7622 21.4186 22.9999 21.4186C23.7387 21.4186 24.5385 21.4988 25.2583 21.5998C27.2871 21.8844 28.8231 23.3467 29.4369 25.1454C29.576 25.5528 29.9977 25.8008 30.4315 25.7302L32.8354 25.3388C33.3802 25.2501 33.8954 25.6096 33.9862 26.1417C34.077 26.6739 33.709 27.1771 33.1642 27.2658L30.7603 27.6571C29.3559 27.8858 27.9899 27.0824 27.5396 25.7631C27.1299 24.5627 26.1492 23.6983 24.9741 23.5334C24.6171 23.4833 24.2538 23.441 23.9009 23.4123L23.5393 26.9434C23.4274 28.037 23.4143 28.3257 23.4899 28.5837C23.5654 28.8416 23.7329 29.0799 24.4202 29.95L30.3255 37.4266C30.6629 37.8536 30.5819 38.467 30.1445 38.7965C29.7073 39.126 29.0793 39.047 28.742 38.6198L22.8366 31.1433C22.8047 31.1029 22.7733 31.0631 22.7422 31.0237C22.1946 30.3318 21.7614 29.7844 21.567 29.1212C21.3727 28.4578 21.4438 27.7694 21.5338 26.8994C21.5389 26.8499 21.5441 26.7998 21.5493 26.7491L21.8881 23.4402C19.657 23.7966 18 25.8453 18 28.2558C18 28.7952 17.5523 29.2325 17 29.2325C16.4477 29.2325 16 28.7952 16 28.2558C16 24.8167 18.5517 21.6362 22.2389 21.441ZM21.1961 31.205C21.7377 31.3108 22.0889 31.8253 21.9806 32.3543C21.5038 34.6826 20.2018 36.7722 18.3036 38.2554L17.6247 38.786C17.1935 39.1229 16.5642 39.0546 16.2192 38.6333C15.8742 38.2122 15.9441 37.5975 16.3753 37.2604L17.0542 36.73C18.585 35.5338 19.635 33.8487 20.0194 31.9712C20.1277 31.4422 20.6545 31.0991 21.1961 31.205Z" fill="#040A2C"/>
</svg>
